<?xml version="1.0" encoding="utf-8"?>
<!-- Generator: Adobe Illustrator 17.1.0, SVG Export Plug-In . SVG Version: 6.00 Build 0)  -->
<!DOCTYPE svg PUBLIC "-//W3C//DTD SVG 1.1//EN" "http://www.w3.org/Graphics/SVG/1.1/DTD/svg11.dtd">
<svg version="1.1" id="Layer_1" xmlns="http://www.w3.org/2000/svg" xmlns:xlink="http://www.w3.org/1999/xlink" x="0px" y="0px"
	 viewBox="0 0 515.91 728.5" enable-background="new 0 0 515.91 728.5" xml:space="preserve">
<g id="map">
	<g>
		<path fill="#010101" d="M246.94,367.76c0.521-0.178,0.936-0.463,0.954-1.145c-0.571-0.484-1.436,0.068-1.432,0.764
			C246.653,367.475,246.614,367.801,246.94,367.76z"/>
		<path fill="#010101" d="M249.517,365.566c0.235-0.369,0.657-0.551,0.668-1.146c-0.17-0.084-0.243-0.266-0.572-0.19
			c-0.516,0.44-1.3,0.609-1.337,1.527C248.648,366.196,249.202,365.752,249.517,365.566z"/>
		<path fill="#010101" d="M252.38,362.99c0.449-0.124,0.636-0.51,0.763-0.955c-0.154-0.133-0.234-0.338-0.572-0.287
			c-0.595,0.378-1.966,0.829-1.337,1.814C251.845,363.601,252.118,363.3,252.38,362.99z"/>
		<path fill="#010101" d="M242.36,375.872c0.055,0.741-0.115,1.706,0.097,2.291c0.024,0.196,0.254,0.191,0.381,0.286
			c0.236-0.124,0.462,0.214,0.477,0c0.218,0.26,0.172,0.783,0.764,0.669c0.605,0.097,0.73-0.288,1.05-0.479
			c0.296-0.214,0.549-0.467,0.764-0.762c0.608-0.41,1.062-0.974,1.621-1.432c0.537-0.481,1.062-0.975,1.624-1.431
			c0.287-0.222,0.593-0.425,0.858-0.668c0.387-0.121,0.554-0.466,0.954-0.573c1.319,0.652,2.426,1.518,3.722,2.195
			c0.613,0.372,1.233,0.739,1.717,1.241c0.372,0.105,0.691,0.263,0.954,0.476c0.281-0.024,0.294,0.217,0.574,0.192
			c-0.044,0.298,0.203,0.304,0.475,0.286c0.732-0.288,1.284-0.753,1.815-1.241c0.603-0.414,1.21-0.824,1.718-1.336
			c0.744-0.273,1.086-0.95,1.812-1.24c0.214-0.297,0.643-0.376,0.859-0.669c0.335-0.173,0.553-0.463,0.954-0.572
			c1.289,0.842,2.185,2.077,3.341,3.054c0.33,0.178,0.439,0.575,0.857,0.668c0.259,0.282,0.441,0.641,0.859,0.764
			c0.312,0.228,0.32,0.761,0.858,0.764c0.359,0.181,0.438,0.645,1.05,0.573c0.371-0.18,0.484-0.485,0.572-0.955
			c0.093-0.491-0.069-1.031,0-1.527c0.154-0.355,0.311-0.708,0.383-1.146c0.508-4.231,0.162-9.315,0.382-13.837
			c0.172-0.642,0.09-1.508,0.096-2.29c0.003-0.804,0.115-1.602,0-2.195c-0.123-0.452-0.436-0.71-0.764-0.954
			c-0.38-0.225-0.634-0.575-1.051-0.764c-0.198-0.262-0.696-0.416-0.858-0.572c-0.081-0.078-0.081-0.028-0.191-0.095
			c-0.377-0.229-0.713-0.527-1.145-0.668c-0.601-0.577-1.344-1.009-2.004-1.527c-0.39-0.183-0.746-0.399-1.049-0.667
			c-0.4-0.207-0.511-0.699-1.051-0.765c-0.006-0.058-0.015-0.112-0.095-0.095c-0.13,0.03-0.184,0.136-0.382,0.095
			c-0.718,0.429-1.226,1.065-1.909,1.527c-0.834,0.534-1.667,1.068-2.48,1.623c-0.431,0.239-0.748,0.589-1.241,0.764
			c-0.114,0.235-0.328,0.373-0.573,0.477c-0.203,0.097-0.354,0.493-0.572,0.286c-1.198-0.519-2.154-1.281-3.244-1.908
			c-0.427-0.433-1.15-0.567-1.623-0.955c-0.685-0.206-1.146-0.636-2.004-0.669c-0.61-0.039-0.875,0.271-1.432,0.285
			c-2.406,1.601-5.331,2.686-7.823,4.2c-0.13,0.347-0.124,0.831-0.383,1.049c-0.128,1.497-0.064,3.06,0,4.581
			C242.254,366.519,241.754,371.433,242.36,375.872z M244.078,377.59c-0.05-0.05,0.069-0.122,0.096-0.095
			C244.221,377.544,244.104,377.616,244.078,377.59z M244.173,358.027c0.143-0.111,0.391-0.119,0.478-0.287
			c0.409-0.131,0.628-0.453,1.048-0.572c0.688-0.396,1.281-0.883,2.005-1.24c0.625-0.457,1.476-0.688,2.1-1.146
			c0.481-0.058,0.593-0.488,1.146-0.477c0.312-0.197,0.6-0.419,0.954-0.572c0.967,0.718,2.067,1.304,3.054,2.003
			c0.486,0.372,1.078,0.64,1.527,1.05c0.562,0.264,0.885,0.769,1.526,0.954c0.909-0.109,1.521-0.514,2.099-0.954
			c0.601-0.419,1.247-0.789,1.814-1.24c1.269-0.734,2.289-1.719,3.53-2.48c0.07-0.09,0.173-0.146,0.287-0.192
			c0.573,0.477,1.066,1.033,1.812,1.337c0.641,0.41,1.271,0.829,2.005,1.145c0.345,0.482,0.855,0.798,1.337,1.146
			c0.404,0.391,0.824,0.765,1.336,1.05c-0.091,1.387-0.206,2.823-0.287,4.294c-0.236,4.274,0.03,9.145-0.191,13.552
			c-1.271-0.541-2.194-1.432-3.34-2.1c-1.244-0.537-1.982-1.58-3.34-2.003c-0.805,0.148-1.189,0.72-1.813,1.049
			c-0.467,0.456-1.104,0.741-1.525,1.241c-1.157,0.721-2.115,1.639-3.15,2.481c-0.368-0.076-0.424-0.466-0.667-0.667
			c-0.174-0.272-0.544-0.349-0.669-0.668c-0.759-0.324-1.259-0.905-2.1-1.146c-0.724-0.357-1.411-0.751-2.195-1.05
			c-0.22-0.288-0.598-0.421-0.763-0.764c-0.298-0.179-0.526-0.429-0.955-0.477c-0.629-0.058-1.012,0.133-1.336,0.381
			c-0.164,0.376-0.693,0.388-0.857,0.764c-0.344,0.196-0.516,0.566-0.86,0.763c-0.259,0.282-0.441,0.64-0.858,0.764
			c-0.474,0.608-1.115,1.047-1.527,1.717c-0.309,0.231-0.5,0.583-0.764,0.859c-0.064,0.222-0.315,0.256-0.38,0.477
			c-0.112,0.028-0.276,0.542-0.287,0.097c0.275-0.375-0.116-0.9-0.096-1.337c-0.104-5.88-0.28-11.685-0.574-17.37
			C243.675,358.102,244.036,358.176,244.173,358.027z"/>
		<path fill="#010101" d="M255.242,365.375c0.021-0.075,0.08-0.111,0.192-0.095c0.337-0.364,0.028-0.987-0.287-1.241
			c-0.021-0.232-0.261-0.43-0.382-0.572c-0.151-0.177-0.277-0.467-0.572-0.477c-0.326-0.042-0.287,0.285-0.478,0.381
			c0.058,0.515,0.409,0.736,0.573,1.145C254.597,364.812,254.688,365.325,255.242,365.375z"/>
		<path fill="#010101" d="M259.728,367.666c0.344-0.452,1.082-0.508,1.049-1.336c-0.074-0.022-0.109-0.08-0.095-0.191
			c-0.18-0.076-0.349-0.16-0.573-0.19c-0.015,0.11-0.149,0.103-0.285,0.095c-0.342,0.317-0.812,0.631-1.146,0.859
			c-0.033,0.023-0.069,0.158-0.096,0.191c-0.025,0.031-0.165-0.032-0.192,0c-0.035,0.046-0.078,0.249-0.094,0.286
			c-0.049,0.122-0.122,0.188-0.095,0.381C258.506,368.429,259.39,368.022,259.728,367.666z"/>
		<path fill="#010101" d="M262.973,361.749c0.253,0.071,0.656-0.053,0.953,0c0.595-0.168,1.16-0.367,1.814-0.477
			c0.453,0.373,0.644,1.008,0.953,1.526c0.355,0.472,0.434,1.221,1.432,1.049c0.112-0.175,0.25-0.323,0.382-0.477
			c-0.161-1.047-0.808-1.61-1.145-2.481c0.524-0.048,0.851-0.294,1.336-0.382c0.447-0.124,0.857-0.287,0.858-0.858
			c-0.318-1.31-1.949-0.252-2.863-0.191c-0.533-0.548-0.661-1.501-1.335-1.909c-0.577-0.004-0.66,0.486-0.764,0.954
			c0.059,0.64,0.406,0.992,0.571,1.528c-0.532,0.229-1.138,0.388-1.908,0.381c-0.246,0.327-0.794,0.351-0.764,0.954
			C262.639,361.543,262.706,361.675,262.973,361.749z"/>
		<path fill="#010101" d="M261.636,365.757c0.457,0.196,0.833-0.24,1.146-0.477c0.343-0.294,0.729-0.543,0.763-1.145
			c-0.57-0.713-1.379,0.171-1.812,0.477c-0.06,0.355-0.392,0.437-0.287,0.955C261.552,365.585,261.594,365.671,261.636,365.757z"/>
		<path fill="#010101" d="M257.341,367.855c0.119-0.564-0.209-0.681-0.382-0.954c-0.328-0.116-0.318-0.572-0.857-0.477h-0.191
			c-0.109,0.113-0.108,0.338-0.096,0.572C256.113,367.475,256.661,368.352,257.341,367.855z"/>
		<path fill="#010101" d="M264.976,361.653c-0.389,0.451-1.434,0.712-1.05,1.622c0.456,0.238,0.705-0.227,1.05-0.381
			c0.275-0.266,0.695-0.387,0.573-1.05C265.349,361.789,265.277,361.608,264.976,361.653z"/>
	</g>
</g>
</svg>
