<?xml version="1.0" encoding="utf-8"?>
<!-- Generator: Adobe Illustrator 17.0.0, SVG Export Plug-In . SVG Version: 6.00 Build 0)  -->
<svg version="1.2" baseProfile="tiny" id="Layer_1" xmlns="http://www.w3.org/2000/svg" xmlns:xlink="http://www.w3.org/1999/xlink"
	 x="0px" y="0px" width="354.256px" height="127.128px" viewBox="0 0 354.256 127.128" xml:space="preserve">
<g>
	<g>
		<path fill="#8DC63F" d="M146.177,27.876l5.241,19.801h-4.16l-0.915-4.188h-5.27l-0.915,4.188h-4.16l5.242-19.801H146.177z
			 M145.65,40.217l-1.914-8.902h-0.056l-1.913,8.902H145.65z"/>
		<path fill="#8DC63F" d="M159.793,27.876c1.017,0,1.872,0.172,2.566,0.513c0.693,0.342,1.252,0.791,1.678,1.345
			c0.425,0.555,0.73,1.188,0.915,1.9c0.184,0.712,0.277,1.438,0.277,2.177c0,1.017-0.153,1.904-0.458,2.662
			c-0.305,0.758-0.731,1.377-1.276,1.858c-0.545,0.481-1.206,0.841-1.983,1.082c-0.776,0.24-1.637,0.36-2.579,0.36h-2.135v7.904
			h-3.994V27.876H159.793z M158.573,36.834c0.795,0,1.437-0.24,1.927-0.721c0.489-0.481,0.735-1.23,0.735-2.247
			c0-0.998-0.213-1.757-0.638-2.274c-0.426-0.517-1.137-0.776-2.136-0.776h-1.664v6.018H158.573z"/>
		<path fill="#8DC63F" d="M174.964,27.876l5.241,19.801h-4.16l-0.915-4.188h-5.269l-0.915,4.188h-4.16l5.242-19.801H174.964z
			 M174.437,40.217l-1.914-8.902h-0.055l-1.913,8.902H174.437z"/>
		<path fill="#8DC63F" d="M189.538,31.412c-0.342-0.656-0.966-0.985-1.871-0.985c-0.499,0-0.912,0.134-1.234,0.402
			c-0.324,0.268-0.579,0.703-0.763,1.303c-0.184,0.601-0.315,1.386-0.388,2.358c-0.074,0.97-0.111,2.159-0.111,3.563
			c0,1.498,0.05,2.709,0.153,3.633c0.101,0.925,0.258,1.641,0.471,2.149c0.213,0.509,0.481,0.851,0.805,1.027
			c0.322,0.176,0.698,0.263,1.123,0.263c0.351,0,0.678-0.059,0.984-0.18c0.306-0.12,0.569-0.36,0.79-0.721
			c0.222-0.361,0.397-0.869,0.526-1.526c0.13-0.656,0.195-1.521,0.195-2.593h3.994c0,1.072-0.084,2.089-0.25,3.051
			c-0.166,0.961-0.476,1.802-0.929,2.523c-0.454,0.722-1.091,1.286-1.914,1.692c-0.823,0.408-1.891,0.611-3.203,0.611
			c-1.497,0-2.69-0.241-3.578-0.722c-0.887-0.48-1.567-1.174-2.039-2.08c-0.471-0.905-0.776-1.987-0.915-3.245
			c-0.139-1.257-0.208-2.644-0.208-4.16c0-1.497,0.07-2.879,0.208-4.146c0.139-1.266,0.444-2.352,0.915-3.258
			c0.472-0.905,1.152-1.613,2.039-2.121c0.887-0.508,2.08-0.763,3.578-0.763c1.424,0,2.547,0.231,3.37,0.693
			c0.823,0.462,1.437,1.05,1.844,1.761c0.406,0.712,0.66,1.48,0.762,2.302c0.102,0.823,0.152,1.595,0.152,2.315h-3.993
			C190.051,33.118,189.879,32.069,189.538,31.412z"/>
		<path fill="#8DC63F" d="M202.252,47.677c0-0.869,0.088-1.683,0.263-2.441c0.175-0.758,0.444-1.479,0.805-2.163
			c0.361-0.684,0.814-1.354,1.359-2.011c0.544-0.656,1.179-1.317,1.9-1.983l1.608-1.498c0.444-0.388,0.8-0.749,1.068-1.081
			c0.267-0.333,0.476-0.666,0.624-0.999c0.147-0.333,0.245-0.693,0.29-1.081c0.046-0.388,0.07-0.832,0.07-1.331
			c0-1.627-0.647-2.441-1.941-2.441c-0.499,0-0.892,0.102-1.179,0.305c-0.286,0.204-0.508,0.481-0.665,0.832
			c-0.157,0.351-0.259,0.758-0.306,1.221c-0.046,0.462-0.068,0.952-0.068,1.47h-3.828v-0.749c0-1.831,0.49-3.235,1.47-4.215
			c0.979-0.98,2.524-1.47,4.631-1.47c1.996,0,3.476,0.462,4.438,1.387c0.961,0.925,1.442,2.246,1.442,3.966
			c0,0.629-0.056,1.216-0.166,1.761c-0.111,0.546-0.288,1.068-0.527,1.567c-0.24,0.499-0.555,0.985-0.943,1.456
			c-0.388,0.471-0.86,0.957-1.415,1.456l-2.218,2.052c-0.592,0.536-1.054,1.059-1.386,1.567c-0.333,0.509-0.545,0.948-0.638,1.317
			h7.405v3.106H202.252z"/>
		<path fill="#8DC63F" d="M215.703,34.587c0.091-1.257,0.342-2.371,0.748-3.341c0.406-0.971,1.021-1.748,1.844-2.33
			c0.823-0.582,1.964-0.874,3.425-0.874c1.202,0,2.195,0.172,2.982,0.513c0.785,0.342,1.413,0.892,1.885,1.65
			c0.471,0.758,0.805,1.743,0.998,2.953c0.195,1.212,0.292,2.686,0.292,4.423c0,1.368-0.046,2.681-0.139,3.938
			c-0.093,1.257-0.342,2.371-0.748,3.342c-0.408,0.97-1.023,1.733-1.844,2.287c-0.823,0.556-1.965,0.833-3.425,0.833
			c-1.184,0-2.173-0.157-2.967-0.472c-0.796-0.315-1.428-0.85-1.9-1.61c-0.472-0.757-0.805-1.742-0.998-2.953
			c-0.195-1.21-0.291-2.685-0.291-4.423C215.564,37.157,215.61,35.845,215.703,34.587z M219.655,42.422
			c0.064,0.786,0.181,1.405,0.347,1.858c0.166,0.453,0.388,0.762,0.665,0.928c0.277,0.166,0.628,0.25,1.054,0.25
			c0.444,0,0.805-0.106,1.082-0.319c0.277-0.213,0.494-0.573,0.651-1.082c0.157-0.508,0.268-1.187,0.333-2.038
			c0.064-0.85,0.097-1.904,0.097-3.162v-2.135c0-1.239-0.032-2.251-0.097-3.037c-0.064-0.785-0.18-1.404-0.347-1.858
			c-0.166-0.453-0.388-0.763-0.665-0.929c-0.277-0.166-0.628-0.25-1.054-0.25c-0.444,0-0.805,0.106-1.082,0.319
			c-0.277,0.213-0.494,0.573-0.651,1.081c-0.157,0.509-0.268,1.188-0.333,2.038c-0.065,0.851-0.097,1.905-0.097,3.162v2.136
			C219.558,40.624,219.59,41.636,219.655,42.422z"/>
		<path fill="#8DC63F" d="M233.424,33.811h-3.91v-2.607h0.36c1.331,0,2.381-0.25,3.148-0.749c0.767-0.499,1.252-1.303,1.456-2.413
			h2.939v19.635h-3.993V33.811z"/>
		<path fill="#8DC63F" d="M248.593,28.042h4.133v12.452h1.885v3.106h-1.885v4.076h-3.661v-4.076h-6.988v-3.273L248.593,28.042z
			 M249.009,33.034l-3.826,7.46h3.882v-7.46H249.009z"/>
	</g>
	<g>
		<path fill="#1C75BC" d="M24.621,56.293c3.581,0,6.595,0.603,9.038,1.808c2.443,1.206,4.412,2.784,5.911,4.738
			c1.497,1.954,2.572,4.186,3.224,6.693c0.65,2.508,0.977,5.066,0.977,7.669c0,3.583-0.537,6.71-1.612,9.38
			c-1.075,2.672-2.574,4.853-4.494,6.546c-1.922,1.695-4.25,2.965-6.986,3.811c-2.735,0.846-5.764,1.269-9.086,1.269h-7.523v27.846
			H0V56.293H24.621z M20.322,87.852c2.8,0,5.064-0.846,6.791-2.541c1.725-1.693,2.589-4.331,2.589-7.913
			c0-3.518-0.749-6.188-2.247-8.012c-1.499-1.822-4.006-2.735-7.523-2.735h-5.862v21.202H20.322z"/>
		<path fill="#1C75BC" d="M71.128,83.26h0.195l9.77-26.966h15.242L78.26,98.598v27.455H64.191V98.598L46.116,56.293h15.828
			L71.128,83.26z"/>
		<path fill="#1C75BC" d="M129.503,68.751c-1.206-2.311-3.403-3.469-6.594-3.469c-1.759,0-3.21,0.473-4.349,1.417
			c-1.14,0.945-2.036,2.476-2.686,4.592c-0.651,2.116-1.108,4.885-1.368,8.304c-0.261,3.42-0.391,7.606-0.391,12.555
			c0,5.276,0.179,9.544,0.537,12.8c0.357,3.258,0.912,5.781,1.661,7.572c0.748,1.793,1.693,2.997,2.833,3.615
			c1.139,0.62,2.458,0.929,3.957,0.929c1.237,0,2.394-0.21,3.469-0.634c1.074-0.423,2.003-1.27,2.784-2.541
			c0.782-1.27,1.399-3.062,1.856-5.374c0.455-2.311,0.685-5.357,0.685-9.134h14.069c0,3.777-0.293,7.361-0.88,10.747
			c-0.585,3.388-1.678,6.352-3.273,8.891c-1.597,2.541-3.843,4.528-6.741,5.961c-2.899,1.432-6.661,2.149-11.284,2.149
			c-5.277,0-9.478-0.847-12.604-2.539c-3.126-1.693-5.52-4.136-7.181-7.328c-1.661-3.191-2.736-7.002-3.224-11.432
			c-0.489-4.429-0.733-9.314-0.733-14.655c0-5.276,0.244-10.144,0.733-14.607c0.488-4.461,1.563-8.288,3.224-11.48
			c1.661-3.191,4.055-5.682,7.181-7.475c3.127-1.79,7.327-2.686,12.604-2.686c5.014,0,8.971,0.815,11.87,2.443
			c2.898,1.629,5.064,3.697,6.497,6.203c1.433,2.508,2.329,5.213,2.688,8.111c0.357,2.898,0.537,5.618,0.537,8.158h-14.069
			C131.311,74.76,130.708,71.063,129.503,68.751z"/>
		<path fill="#1C75BC" d="M241.519,104.071h0.196V56.293h12.896v69.761h-16.023l-17.196-48.852h-0.196v48.852h-12.896V56.293h16.218
			L241.519,104.071z"/>
		<path fill="none" d="M171.816,118.404l0.307,0.033c0,0,0.003-0.03,0.004-0.048c-0.103-0.03-0.206-0.06-0.308-0.092
			C171.816,118.357,171.816,118.404,171.816,118.404z"/>
		<path fill="#FFFFFF" d="M172.575,117.876c0.449,0,0.706,0.393,1.155,0.505c0.449,0.112,0.105-0.089,0.105-0.594
			c0-0.505,0.337-0.561,0.505-0.785c0.168-0.225,0.505-0.729,0.393-0.954c-0.112-0.224-0.224-0.954-0.224-0.954
			s0.112-0.954,0.112-1.346c0-0.393,0.056-0.729,0.056-0.729s-0.449-0.561-0.056-1.346c0.393-0.785,1.458-3.366,1.458-3.366
			l0.505-0.561c0,0-0.346-0.479-0.01-0.703c0.337-0.224,2.085-1.148,2.31-1.485c0.224-0.337,0.168-0.449,0.393-0.673
			c0.224-0.224-0.337-0.425-0.112-0.706c0.224-0.281,0.28-0.135,0.673-0.416c0.393-0.281,0.633-0.904,0.746-1.185
			c0.112-0.281,0.993-1.331,1.234-2.253c0.194-0.263,0.577-0.363,0.577-0.363s-0.096-0.846-0.04-1.294
			c0.056-0.449,0.343-0.571,0.343-0.571s-0.026-0.014,0.254-0.574c0.28-0.561,0.475-0.772,0.475-0.772s0.669-1.735,0.617-2.34
			c-0.06-0.703,0.228-1.275,0.397-1.611c0.168-0.337-0.189-0.424,0.148-1.041c0.337-0.617,0.089-0.512,0.257-1.129
			c0.168-0.617,0.197-0.378,0.416-1.409c0.339-0.806,0.577-2.511,0.577-2.511s0.363-0.093,0.25-0.598
			c-0.112-0.505-0.379-0.082-0.267-0.811c0.112-0.729,0.455-0.61,0.68-0.835c0.224-0.224-0.29-0.841,0.215-1.29
			c0.505-0.449,0.524-0.337,0.973-0.841s0.561-1.01,0.561-1.01s-0.056-0.841,0.168-1.01c0.224-0.168,0-0.392,0.281-0.673
			s-0.056-0.168,0.337-0.561c0.393-0.393,0.112-0.505,0.224-0.729c0.112-0.224,0.115-0.301,0.363-0.264
			c0.324,0.048-0.082-1.501-0.082-1.501s-0.393-0.872-0.393-1.376c0-0.505-0.276-0.333-0.234-0.951
			c0.043-0.624,0.092-1.555,1.524-2.808c0.694-0.607,0.951-0.343,0.97-0.349c0,0,0.149-0.851-0.075-0.57
			c-0.224,0.28-0.726-0.932-0.726-0.932v-0.449v-0.617l0,0c0,0-2.362,0.721-3.478-0.673c-0.345-0.432-0.449-0.393-0.449-0.393
			l-0.28-0.337l-0.224-0.168l-0.056-0.393l-0.874-0.442l-0.617,0.168l-0.393-0.056l-0.696,0.442l-0.449,0.393l-0.112,0.393
			l-0.703,0.967c0,0-2.058,0.722-2.422,0.564c-0.281-0.122-1.026,0.488-1.531,0.657c-0.505,0.168-1.458,0.561-1.458,0.561
			l-0.785,1.402l-1.29,1.907c0,0,0,0.673-0.056,1.01c-0.056,0.336-0.785,0.505-0.785,0.505s0.225,0.337,0,0.617
			c-0.224,0.281-1.066,0.168-1.066,0.168s-0.224,0.28-0.224,0.561s-0.617,0.393-0.617,0.393s-0.215,0.123-0.449,0.729
			c-0.428,1.109-0.954,1.907-0.954,1.907l-1.01,1.122l-0.449,0.954l-0.369,0.369c0,0-0.023,0.584-0.135,0.865
			c-0.112,0.281-0.464,0.573-0.464,0.573s-0.209,0.436-0.434,0.492c-0.224,0.056,0.056,0.168-0.393,0.954
			c-0.449,0.785-1.346,1.402-1.346,1.402s-0.224,1.29-0.505,1.571c-0.281,0.28-1.428,1.313-1.597,1.65
			c-0.168,0.337-0.759,1.211-0.759,1.435c0,0.225,0,0.785-0.168,1.178c-0.168,0.393-0.346,0.785-0.178,1.066
			c0.168,0.28-0.325,0.584-0.281,0.868c0.043,0.273,0.29-0.026,0.346,0.647c0.056,0.673-0.056,1.459-0.168,1.795
			c-0.112,0.337-0.449,1.795-0.673,2.076c-0.224,0.28-0.337,1.066-0.337,1.066s0.449-0.168,0.337,0.056
			c-0.112,0.224-0.535,0.505-0.535,0.505s-0.138,0.729,0.03,0.954c0.168,0.224,0.393-0.056,0.954,0.449
			c0.561,0.505,0.987,0.575,0.874,0.967c-0.112,0.393,0.191,1.164,0.191,1.164s0.281,0.225,0.281,0.393
			c0,0.168-0.168,0.617,0.225,1.122c0.393,0.505,0.393,0.729,0.561,1.122c0.168,0.393-0.056,0.729-0.056,0.729
			s0.281,1.148,0.841,1.485c0.561,0.336,0.785,1.096,1.346,1.32c0.561,0.224,1.739,1.066,1.739,1.066s1.332,0.354,1.898,1.337
			c0.31,0.539,0.346,1.075,0.346,1.075s0.337,0.112,0.561,0.785c0.224,0.673,0.673,2.132,0.505,2.356s-0.617,0.393-0.393,0.673
			c0.224,0.28,0.505,0.393,0.449,0.673c-0.038,0.193-0.05,0.43-0.054,0.565c0.102,0.032,0.205,0.062,0.308,0.092
			C172.134,118.274,172.188,117.876,172.575,117.876z"/>
		<path fill="#1C75BC" d="M199.263,76.567c-0.489-4.461-1.563-8.288-3.224-11.48c-1.661-3.19-4.055-5.682-7.182-7.475
			c-3.126-1.79-7.328-2.687-12.604-2.687c-5.276,0-9.476,0.896-12.604,2.687c-3.126,1.792-5.52,4.284-7.181,7.475
			c-1.661,3.192-2.735,7.02-3.224,11.48c-0.489,4.462-0.732,9.331-0.732,14.607c0,5.342,0.244,10.227,0.732,14.655
			c0.489,4.43,1.563,8.241,3.224,11.432c1.661,3.192,4.055,5.634,7.181,7.328c3.127,1.692,7.328,2.539,12.604,2.539
			c5.276,0,9.478-0.847,12.604-2.539c3.127-1.693,5.521-4.136,7.182-7.328c1.661-3.191,2.735-7.002,3.224-11.432
			c0.489-4.428,0.733-9.314,0.733-14.655C199.995,85.898,199.751,81.03,199.263,76.567z M172.122,118.437l-0.307-0.033
			c0,0,0.001-0.046,0.003-0.108c0.004-0.135,0.015-0.373,0.054-0.565c0.056-0.281-0.224-0.393-0.449-0.673
			c-0.224-0.281,0.224-0.449,0.393-0.673s-0.281-1.683-0.505-2.356c-0.224-0.673-0.561-0.785-0.561-0.785s-0.036-0.537-0.346-1.075
			c-0.566-0.982-1.898-1.337-1.898-1.337s-1.178-0.841-1.739-1.066c-0.561-0.225-0.785-0.984-1.346-1.32
			c-0.561-0.337-0.841-1.485-0.841-1.485s0.224-0.336,0.056-0.729c-0.168-0.393-0.168-0.617-0.561-1.122
			c-0.393-0.505-0.225-0.954-0.225-1.122c0-0.168-0.281-0.393-0.281-0.393s-0.303-0.772-0.191-1.164
			c0.112-0.393-0.313-0.462-0.874-0.967c-0.561-0.505-0.785-0.224-0.954-0.449c-0.168-0.224-0.03-0.954-0.03-0.954
			s0.423-0.28,0.535-0.505c0.112-0.224-0.337-0.056-0.337-0.056s0.112-0.785,0.337-1.066c0.224-0.28,0.561-1.739,0.673-2.076
			c0.112-0.336,0.224-1.122,0.168-1.795c-0.056-0.673-0.303-0.374-0.346-0.647c-0.045-0.284,0.449-0.587,0.281-0.868
			c-0.168-0.281,0.009-0.673,0.178-1.066c0.168-0.393,0.168-0.954,0.168-1.178c0-0.224,0.591-1.099,0.759-1.435
			c0.168-0.337,1.316-1.369,1.597-1.65c0.281-0.281,0.505-1.571,0.505-1.571s0.898-0.617,1.346-1.402
			c0.449-0.785,0.168-0.897,0.393-0.954c0.224-0.056,0.434-0.492,0.434-0.492s0.352-0.293,0.464-0.573
			c0.112-0.28,0.135-0.865,0.135-0.865l0.369-0.369l0.449-0.954l1.01-1.122c0,0,0.526-0.798,0.954-1.907
			c0.234-0.606,0.449-0.729,0.449-0.729s0.617-0.112,0.617-0.393s0.224-0.561,0.224-0.561s0.841,0.112,1.066-0.168
			c0.225-0.28,0-0.617,0-0.617s0.729-0.168,0.785-0.505c0.056-0.337,0.056-1.01,0.056-1.01l1.29-1.907l0.785-1.402
			c0,0,0.954-0.393,1.458-0.561c0.505-0.168,1.251-0.778,1.531-0.657c0.364,0.158,2.422-0.564,2.422-0.564l0.703-0.967l0.112-0.393
			l0.449-0.393l0.696-0.442l0.393,0.056l0.617-0.168l0.874,0.442l0.056,0.393l0.224,0.168l0.28,0.337c0,0,0.103-0.039,0.449,0.393
			c1.116,1.394,3.478,0.673,3.478,0.673l0,0v0.617v0.449c0,0,0.502,1.212,0.726,0.932c0.224-0.281,0.075,0.57,0.075,0.57
			c-0.019,0.006-0.277-0.257-0.97,0.349c-1.432,1.252-1.482,2.184-1.524,2.808c-0.042,0.618,0.234,0.446,0.234,0.951
			c0,0.505,0.393,1.376,0.393,1.376s0.406,1.549,0.082,1.501c-0.248-0.037-0.25,0.04-0.363,0.264
			c-0.112,0.225,0.168,0.337-0.224,0.729c-0.393,0.393-0.056,0.28-0.337,0.561s-0.056,0.505-0.281,0.673
			c-0.224,0.168-0.168,1.01-0.168,1.01s-0.112,0.505-0.561,1.01s-0.468,0.393-0.973,0.841c-0.505,0.449,0.01,1.066-0.215,1.29
			c-0.224,0.225-0.568,0.105-0.68,0.835c-0.112,0.729,0.155,0.307,0.267,0.811c0.112,0.505-0.25,0.598-0.25,0.598
			s-0.238,1.705-0.577,2.511c-0.219,1.032-0.248,0.792-0.416,1.409c-0.168,0.617,0.079,0.512-0.257,1.129
			c-0.337,0.617,0.02,0.705-0.148,1.041c-0.168,0.337-0.457,0.908-0.397,1.611c0.052,0.605-0.617,2.34-0.617,2.34
			s-0.194,0.211-0.475,0.772c-0.281,0.561-0.254,0.574-0.254,0.574s-0.287,0.122-0.343,0.571c-0.056,0.449,0.04,1.294,0.04,1.294
			s-0.383,0.099-0.577,0.363c-0.241,0.922-1.122,1.973-1.234,2.253c-0.112,0.281-0.353,0.904-0.746,1.185
			c-0.393,0.28-0.449,0.135-0.673,0.416c-0.225,0.281,0.336,0.482,0.112,0.706c-0.224,0.224-0.168,0.336-0.393,0.673
			c-0.225,0.337-1.973,1.26-2.31,1.485c-0.336,0.224,0.01,0.703,0.01,0.703l-0.505,0.561c0,0-1.066,2.58-1.458,3.366
			c-0.393,0.785,0.056,1.346,0.056,1.346s-0.056,0.337-0.056,0.729c0,0.393-0.112,1.346-0.112,1.346s0.112,0.729,0.224,0.954
			c0.112,0.225-0.224,0.729-0.393,0.954c-0.168,0.224-0.505,0.28-0.505,0.785c0,0.505,0.343,0.706-0.105,0.594
			c-0.449-0.112-0.706-0.505-1.155-0.505c-0.387,0-0.44,0.398-0.449,0.513C172.125,118.407,172.122,118.437,172.122,118.437z"/>
	</g>
</g>
<path fill="none" d="M300.096,111.048c0.065-0.079,0.137-0.157,0.2-0.236C300.233,110.891,300.161,110.968,300.096,111.048z"/>
<path fill="none" d="M301.085,109.679c1.523-2.43,2.063-5.101,2.413-8.108C303.146,104.551,302.607,107.235,301.085,109.679z"/>
<path fill="none" d="M300.601,110.39c0.128-0.177,0.259-0.353,0.376-0.533C300.861,110.037,300.729,110.213,300.601,110.39z"/>
<path fill="none" d="M303.607,100.582c0.007-0.066,0.014-0.13,0.021-0.197c-0.022,0.208-0.045,0.412-0.068,0.617
	C303.576,100.862,303.593,100.724,303.607,100.582z"/>
<path fill="#1C75BC" d="M303.561,101.002c-0.021,0.19-0.041,0.382-0.063,0.569c-0.35,3.007-0.891,5.678-2.413,8.108
	c-0.037,0.059-0.069,0.119-0.107,0.178c-0.117,0.179-0.248,0.356-0.376,0.533c-0.101,0.141-0.197,0.283-0.306,0.422
	c-0.062,0.079-0.135,0.157-0.2,0.236c-1.401,1.71-3.393,3.301-6.31,4.789c-8.312,4.237-5.949,8.475-5.949,8.475
	s0.991,2.678,4.014,2.817c1.944,0.09,4.718-0.787,8.597-3.924c8.446-6.325,3.182-22.82,3.182-22.82
	c-0.007,0.066-0.014,0.131-0.021,0.197C303.593,100.724,303.576,100.862,303.561,101.002z"/>
<path fill="#8DC63F" d="M303.498,101.571c0.022-0.187,0.042-0.379,0.063-0.569C303.54,101.193,303.52,101.383,303.498,101.571z"/>
<path fill="#8DC63F" d="M300.296,110.811c0.109-0.139,0.204-0.281,0.306-0.422C300.5,110.53,300.405,110.672,300.296,110.811z"/>
<path fill="#1C75BC" d="M353.976,23.487l-1.129-0.797l0.79-1.03c0.222-0.289,0.168-0.704-0.121-0.925
	c-0.289-0.221-0.703-0.168-0.926,0.122l-1.049,1.367l-2.595,0.425c-0.212-0.433-0.418-0.862-0.659-1.31
	c-0.025-0.047-0.054-0.089-0.08-0.136c-3.786-6.487-11.659-10.917-28.405-3.519c-19.336,8.542-19.653,21.29-31.036,24.135
	c-17.654,4.414-18.147-12.494-18.147-12.494s-0.005-0.002-0.005-0.003c-0.058-0.029-5.078-2.578-7.833-0.309
	c-8.839,7.279,5.666,16.166,11.785,20.192c4.903,3.225,11.226,7.751,12.284,13.861c0.078,0.451,0.123,0.911,0.141,1.379
	c0.046,1.203-0.091,2.456-0.506,3.777c-3.186,10.122-5.245,18.345-5.442,19.14c0.081-0.221,0.151-0.439,0.235-0.661
	c1.148-2.661,6.324-14.583,9.534-20.72c3.978-7.604,9.244-12.549,23.492-18.551c7.62-3.21,16.796-3.82,22.598-5.495
	c5.084-1.468,12.736-7.367,13.34-13.909c0.086-1.223-0.077-2.466-0.551-3.706c-0.143-0.374-0.12-0.396-0.12-0.396
	c-0.026-0.06,2.175-0.397,2.175-0.397l1.47,1.037c0.116,0.081,0.249,0.121,0.38,0.121c0.206,0,0.411-0.097,0.539-0.28
	C354.345,24.11,354.274,23.697,353.976,23.487z"/>
<path fill="#8DC63F" d="M349.536,23.891c0.096,0.298,0.097,0.293,0.112,0.332c0.5,1.307,0.711,2.52,0.593,3.806
	c-0.603,6.542-8.256,12.441-13.34,13.909c-5.802,1.675-14.978,2.285-22.598,5.495c-14.248,6.002-19.514,10.946-23.492,18.551
	c-3.21,6.137-8.386,18.058-9.534,20.72c-0.085,0.221-0.154,0.44-0.235,0.661c-4.745,12.886-3.73,24.262-0.916,30.035
	c4.074,7.808,8.183,9.881,11.725,9.729c-3.023-0.139-4.014-2.817-4.014-2.817s-2.363-4.237,5.949-8.475
	c2.918-1.488,4.91-3.079,6.31-4.789c0.065-0.079,0.137-0.157,0.2-0.236c0.109-0.139,0.204-0.281,0.306-0.422
	c0.127-0.177,0.26-0.353,0.376-0.533c0.038-0.059,0.07-0.119,0.107-0.178c1.523-2.444,2.062-5.127,2.413-8.108
	c0.022-0.188,0.042-0.378,0.063-0.569c0.023-0.206,0.046-0.409,0.068-0.617c-1.857-6.197-11.797-19.12-8.064-27.486
	c4.284-9.602,11.038-14.168,24.96-15.608C333.653,55.932,361.871,50.513,349.536,23.891z"/>
<path fill="#8DC63F" d="M300.977,109.857c0.038-0.059,0.07-0.119,0.107-0.178C301.047,109.738,301.016,109.798,300.977,109.857z"/>
<path fill="#8DC63F" d="M279.092,9.057c-6.416,5.703-8.547,13.534-8.479,20.267c0,0,0.005,0.003,0.005,0.003
	s0.379,12.75,12.046,13.209l0.087,2.772l-1.221,1.321c-0.248,0.268-0.231,0.685,0.037,0.933c0.126,0.117,0.288,0.175,0.448,0.175
	c0.178,0,0.355-0.071,0.485-0.212l0.938-1.016l0.917,0.918c0.129,0.129,0.298,0.193,0.467,0.193c0.169,0,0.338-0.064,0.467-0.193
	c0.258-0.258,0.258-0.676,0-0.934l-1.218-1.218l-0.086-2.74c1.436-0.054,3.018-0.274,4.779-0.715
	c11.383-2.846,11.7-15.594,31.036-24.135c16.746-7.398,24.619-2.968,28.405,3.519C332.506-7.649,292.523-2.155,279.092,9.057z"/>
</svg>
